<?xml version="1.0" standalone="no"?>
<!DOCTYPE svg PUBLIC "-//W3C//DTD SVG 20010904//EN"
 "http://www.w3.org/TR/2001/REC-SVG-20010904/DTD/svg10.dtd">
<svg version="1.0" xmlns="http://www.w3.org/2000/svg"
 width="70.000000pt" height="77.000000pt" viewBox="0 0 70.000000 77.000000"
 preserveAspectRatio="xMidYMid meet">

<g transform="translate(0.000000,77.000000) scale(0.100000,-0.100000)"
fill="#000000" stroke="none">
<path d="M257 743 l-108 -4 3 -62 3 -62 175 2 174 3 30 30 30 30 -34 35 c-33
34 -36 35 -99 33 -37 -1 -115 -4 -174 -5z m248 -43 c17 -19 17 -21 0 -40 -16
-18 -31 -20 -137 -20 l-118 0 0 40 0 40 118 0 c106 0 121 -2 137 -20z m-285
-25 c0 -28 -4 -35 -20 -35 -16 0 -20 7 -20 35 0 28 4 35 20 35 16 0 20 -7 20
-35z" fill="#E21717"/>
<path d="M84 556 c-47 -21 -54 -55 -54 -253 0 -207 8 -236 67 -252 52 -15 480
-14 523 0 52 19 60 52 60 254 0 195 -9 238 -55 255 -42 16 -503 12 -541 -4z
m531 -251 l0 -200 -260 0 -260 0 -3 190 c-1 104 0 195 3 202 3 11 58 13 262
11 l258 -3 0 -200z" fill="#E21717"/>
<path d="M162 438 c-18 -18 -17 -252 2 -267 9 -7 41 -11 83 -9 l68 3 0 140 0
140 -70 3 c-46 2 -74 -1 -83 -10z m106 -130 l-3 -93 -30 0 -30 0 -3 79 c-2 44
-1 85 2 93 3 7 19 13 36 13 l31 0 -3 -92z" fill="#E21717"/>
<path d="M394 435 c-4 -9 -2 -21 4 -27 15 -15 44 -1 40 19 -4 23 -36 29 -44 8z" fill="#E21717"/>
<path d="M517 444 c-4 -4 -7 -16 -7 -26 0 -14 6 -19 23 -16 14 2 22 10 22 23
0 20 -25 32 -38 19z" fill="#E21717"/>
<path d="M394 315 c-4 -9 -2 -21 4 -27 15 -15 44 -1 40 19 -4 23 -36 29 -44 8z" fill="#E21717"/>
<path d="M514 315 c-4 -9 -2 -21 4 -27 15 -15 44 -1 40 19 -4 23 -36 29 -44 8z" fill="#E21717"/>
<path d="M390 191 c0 -22 29 -36 43 -22 15 15 0 41 -23 41 -13 0 -20 -7 -20
-19z" fill="#E21717"/>
<path d="M512 188 c4 -27 33 -36 42 -13 8 22 -1 35 -25 35 -15 0 -20 -6 -17
-22z" fill="#E21717"/>
</g>
</svg>
