<?xml version="1.0" standalone="no"?>
<!DOCTYPE svg PUBLIC "-//W3C//DTD SVG 20010904//EN"
 "http://www.w3.org/TR/2001/REC-SVG-20010904/DTD/svg10.dtd">
<svg version="1.0" xmlns="http://www.w3.org/2000/svg"
 width="58.000000pt" height="67.000000pt" viewBox="0 0 58.000000 67.000000"
 preserveAspectRatio="xMidYMid meet">

<g transform="translate(0.000000,67.000000) scale(0.100000,-0.100000)"
fill="#000000" stroke="none">
<path d="M202 602 c-17 -18 -42 -31 -66 -35 -22 -3 -49 -16 -60 -27 -20 -19
-21 -34 -24 -239 l-3 -219 25 -28 24 -29 190 -3 c189 -3 190 -3 218 22 l29 24
3 220 c3 217 3 220 -20 246 -15 17 -38 29 -63 33 -25 4 -50 17 -67 35 -24 25
-32 28 -93 28 -61 0 -69 -3 -93 -28z m142 -48 c33 -32 20 -44 -49 -44 -50 0
-65 3 -65 14 0 25 30 46 65 46 18 0 41 -7 49 -16z m-170 -74 l6 -30 115 0 116
0 6 30 c6 32 14 36 44 20 18 -10 19 -23 19 -205 0 -182 -1 -195 -19 -205 -26
-13 -306 -13 -332 0 -18 10 -19 23 -19 205 0 174 2 195 18 204 28 17 39 13 46
-19z" fill="#fff"/>
<path d="M186 375 c-19 -19 -11 -41 17 -49 12 -3 59 -6 104 -6 61 0 86 4 97
16 9 8 16 17 16 19 0 2 -7 11 -16 19 -22 23 -196 23 -218 1z" fill="#fff"/>
<path d="M176 245 c-10 -28 22 -45 89 -45 67 0 99 17 89 45 -5 12 -25 15 -89
15 -64 0 -84 -3 -89 -15z" fill="#fff"/>
</g>
</svg>
