<?xml version="1.0" standalone="no"?>
<!DOCTYPE svg PUBLIC "-//W3C//DTD SVG 20010904//EN"
 "http://www.w3.org/TR/2001/REC-SVG-20010904/DTD/svg10.dtd">
<svg version="1.0" xmlns="http://www.w3.org/2000/svg"
 width="73.000000pt" height="69.000000pt" viewBox="0 0 73.000000 69.000000"
 preserveAspectRatio="xMidYMid meet">

<g transform="translate(0.000000,69.000000) scale(0.100000,-0.100000)"
fill="#000000" stroke="none">
<path d="M216 501 l-159 -159 63 -66 c35 -36 70 -66 79 -66 21 0 311 290 311
310 0 14 -118 140 -130 140 -3 0 -77 -72 -164 -159z m214 64 c41 -42 43 -46
28 -62 -14 -14 -20 -14 -33 -3 -23 19 -44 -2 -25 -25 11 -13 11 -19 -3 -33
-16 -15 -19 -14 -47 13 -21 20 -33 26 -41 18 -7 -7 -2 -20 17 -42 25 -30 26
-34 11 -48 -13 -14 -19 -14 -32 -3 -23 19 -44 -2 -25 -25 11 -13 11 -19 -3
-33 -16 -15 -19 -14 -47 13 -21 20 -33 26 -41 18 -7 -7 -2 -20 17 -42 25 -30
26 -34 10 -49 -15 -15 -19 -13 -63 31 l-48 47 135 135 c74 74 137 135 140 135
3 0 26 -20 50 -45z" fill="#E21717"/>
<path d="M537 464 c-4 -4 -7 -61 -7 -126 l0 -118 -118 0 c-78 0 -122 -4 -130
-12 -17 -17 -16 -133 2 -147 9 -8 73 -11 207 -9 l194 3 0 205 0 205 -70 3
c-39 1 -74 0 -78 -4z m113 -204 l0 -170 -170 0 -170 0 0 45 c0 41 2 45 25 45
18 0 25 -5 25 -20 0 -11 7 -20 15 -20 8 0 15 9 15 20 0 14 7 20 24 20 15 0 26
-7 29 -20 7 -26 27 -26 34 0 7 28 53 28 53 0 0 -11 7 -20 15 -20 8 0 15 9 15
20 0 13 7 20 20 20 12 0 20 7 20 16 0 9 -9 18 -20 21 -11 3 -20 13 -20 23 0
10 9 20 20 23 11 3 20 12 20 21 0 9 -8 16 -20 16 -15 0 -20 7 -20 25 0 18 5
25 20 25 11 0 20 7 20 15 0 8 -9 15 -20 15 -15 0 -20 7 -20 25 0 23 4 25 45
25 l45 0 0 -170z" fill="#E21717"/>
</g>
</svg>