<?xml version="1.0" standalone="no"?>
<!DOCTYPE svg PUBLIC "-//W3C//DTD SVG 20010904//EN"
 "http://www.w3.org/TR/2001/REC-SVG-20010904/DTD/svg10.dtd">
<svg version="1.0" xmlns="http://www.w3.org/2000/svg"
 width="980.000000pt" height="848.000000pt" viewBox="0 0 980.000000 848.000000"
fill="none" preserveAspectRatio="xMidYMid meet">

<g transform="translate(0.000000,848.000000) scale(0.100000,-0.100000)"
fill="none" stroke="none">
<path d="M5460 8335 l-135 -135 65 -64 c333 -326 3746 -3712 3748 -3718 2 -4
-2053 -8 -4567 -8 l-4571 0 0 -170 0 -170 4572 -2 4572 -3 -1765 -1749 c-970
-962 -1829 -1814 -1909 -1892 l-145 -144 138 -137 137 -138 159 160 c87 88
1032 1041 2100 2117 l1942 1958 -2096 2112 c-1153 1162 -2099 2114 -2103 2116
-4 1 -68 -59 -142 -133z" fill="#E21717"/>

</g>
</svg>
